<svg id="visual" viewBox="0 0 900 600" width="900" height="600" xmlns="http://www.w3.org/2000/svg" xmlns:xlink="http://www.w3.org/1999/xlink" version="1.1"><g stroke-width="1" stroke-linejoin="bevel"><path d="M437 308L516 337L471 224Z" fill="#246688" stroke="#246688"></path><path d="M410 398L538 382L516 337Z" fill="#297ea6" stroke="#297ea6"></path><path d="M516 337L637 234L471 224Z" fill="#15384f" stroke="#15384f"></path><path d="M471 224L435 181L437 308Z" fill="#15384f" stroke="#15384f"></path><path d="M329 274L410 398L437 308Z" fill="#081a28" stroke="#081a28"></path><path d="M437 308L410 398L516 337Z" fill="#246688" stroke="#246688"></path><path d="M538 382L628 332L516 337Z" fill="#205a7a" stroke="#205a7a"></path><path d="M471 224L566 124L435 181Z" fill="#297ea6" stroke="#297ea6"></path><path d="M538 382L561 411L628 332Z" fill="#19435d" stroke="#19435d"></path><path d="M481 510L561 411L538 382Z" fill="#297ea6" stroke="#297ea6"></path><path d="M628 332L637 234L516 337Z" fill="#00101c" stroke="#00101c"></path><path d="M435 181L329 274L437 308Z" fill="#297ea6" stroke="#297ea6"></path><path d="M637 234L566 124L471 224Z" fill="#15384f" stroke="#15384f"></path><path d="M435 181L326 224L329 274Z" fill="#112e42" stroke="#112e42"></path><path d="M388 66L326 224L435 181Z" fill="#112e42" stroke="#112e42"></path><path d="M566 124L461 87L435 181Z" fill="#00101c" stroke="#00101c"></path><path d="M761 206L673 178L637 234Z" fill="#205a7a" stroke="#205a7a"></path><path d="M637 234L673 178L566 124Z" fill="#15384f" stroke="#15384f"></path><path d="M289 424L372 467L410 398Z" fill="#297ea6" stroke="#297ea6"></path><path d="M410 398L481 510L538 382Z" fill="#081a28" stroke="#081a28"></path><path d="M372 467L481 510L410 398Z" fill="#297ea6" stroke="#297ea6"></path><path d="M725 375L728 335L628 332Z" fill="#00101c" stroke="#00101c"></path><path d="M461 87L388 66L435 181Z" fill="#00101c" stroke="#00101c"></path><path d="M725 375L628 332L661 482Z" fill="#00101c" stroke="#00101c"></path><path d="M628 332L728 335L637 234Z" fill="#205a7a" stroke="#205a7a"></path><path d="M229 336L289 424L329 274Z" fill="#112e42" stroke="#112e42"></path><path d="M329 274L289 424L410 398Z" fill="#205a7a" stroke="#205a7a"></path><path d="M481 510L602 504L561 411Z" fill="#1d4e6b" stroke="#1d4e6b"></path><path d="M661 482L628 332L561 411Z" fill="#297ea6" stroke="#297ea6"></path><path d="M602 504L661 482L561 411Z" fill="#081a28" stroke="#081a28"></path><path d="M191 228L229 336L329 274Z" fill="#19435d" stroke="#19435d"></path><path d="M191 228L329 274L326 224Z" fill="#00101c" stroke="#00101c"></path><path d="M777 305L761 206L728 335Z" fill="#297ea6" stroke="#297ea6"></path><path d="M728 335L761 206L637 234Z" fill="#277297" stroke="#277297"></path><path d="M609 0L479 0L566 124Z" fill="#112e42" stroke="#112e42"></path><path d="M609 0L566 124L733 86Z" fill="#1d4e6b" stroke="#1d4e6b"></path><path d="M566 124L479 0L461 87Z" fill="#19435d" stroke="#19435d"></path><path d="M461 87L412 0L388 66Z" fill="#1d4e6b" stroke="#1d4e6b"></path><path d="M780 372L777 305L728 335Z" fill="#277297" stroke="#277297"></path><path d="M780 372L728 335L725 375Z" fill="#081a28" stroke="#081a28"></path><path d="M479 0L412 0L461 87Z" fill="#112e42" stroke="#112e42"></path><path d="M388 66L289 60L326 224Z" fill="#277297" stroke="#277297"></path><path d="M294 0L289 60L388 66Z" fill="#1d4e6b" stroke="#1d4e6b"></path><path d="M777 481L780 372L725 375Z" fill="#081a28" stroke="#081a28"></path><path d="M733 86L566 124L673 178Z" fill="#277297" stroke="#277297"></path><path d="M177 106L191 228L326 224Z" fill="#081a28" stroke="#081a28"></path><path d="M761 206L733 86L673 178Z" fill="#205a7a" stroke="#205a7a"></path><path d="M481 510L529 600L602 504Z" fill="#00101c" stroke="#00101c"></path><path d="M602 504L605 600L661 482Z" fill="#277297" stroke="#277297"></path><path d="M429 600L529 600L481 510Z" fill="#277297" stroke="#277297"></path><path d="M429 600L481 510L372 467Z" fill="#246688" stroke="#246688"></path><path d="M265 525L429 600L372 467Z" fill="#081a28" stroke="#081a28"></path><path d="M229 336L174 366L289 424Z" fill="#1d4e6b" stroke="#1d4e6b"></path><path d="M289 424L265 525L372 467Z" fill="#205a7a" stroke="#205a7a"></path><path d="M191 228L174 366L229 336Z" fill="#112e42" stroke="#112e42"></path><path d="M237 510L265 525L289 424Z" fill="#277297" stroke="#277297"></path><path d="M529 600L605 600L602 504Z" fill="#246688" stroke="#246688"></path><path d="M661 482L777 481L725 375Z" fill="#00101c" stroke="#00101c"></path><path d="M174 366L237 510L289 424Z" fill="#112e42" stroke="#112e42"></path><path d="M412 0L294 0L388 66Z" fill="#297ea6" stroke="#297ea6"></path><path d="M289 60L177 106L326 224Z" fill="#19435d" stroke="#19435d"></path><path d="M738 600L777 481L661 482Z" fill="#0c2435" stroke="#0c2435"></path><path d="M733 86L707 0L609 0Z" fill="#19435d" stroke="#19435d"></path><path d="M204 0L177 106L289 60Z" fill="#19435d" stroke="#19435d"></path><path d="M191 228L96 316L174 366Z" fill="#00101c" stroke="#00101c"></path><path d="M761 206L811 61L733 86Z" fill="#15384f" stroke="#15384f"></path><path d="M733 86L791 0L707 0Z" fill="#205a7a" stroke="#205a7a"></path><path d="M900 160L811 61L761 206Z" fill="#246688" stroke="#246688"></path><path d="M900 269L761 206L777 305Z" fill="#081a28" stroke="#081a28"></path><path d="M900 269L777 305L900 386Z" fill="#19435d" stroke="#19435d"></path><path d="M103 0L129 132L177 106Z" fill="#15384f" stroke="#15384f"></path><path d="M177 106L129 132L191 228Z" fill="#1d4e6b" stroke="#1d4e6b"></path><path d="M168 600L263 600L237 510Z" fill="#0c2435" stroke="#0c2435"></path><path d="M237 510L263 600L265 525Z" fill="#205a7a" stroke="#205a7a"></path><path d="M265 525L263 600L429 600Z" fill="#277297" stroke="#277297"></path><path d="M82 182L96 316L191 228Z" fill="#205a7a" stroke="#205a7a"></path><path d="M174 366L69 462L237 510Z" fill="#297ea6" stroke="#297ea6"></path><path d="M294 0L204 0L289 60Z" fill="#0c2435" stroke="#0c2435"></path><path d="M605 600L738 600L661 482Z" fill="#205a7a" stroke="#205a7a"></path><path d="M900 386L780 372L777 481Z" fill="#246688" stroke="#246688"></path><path d="M900 386L777 305L780 372Z" fill="#277297" stroke="#277297"></path><path d="M900 0L791 0L811 61Z" fill="#1d4e6b" stroke="#1d4e6b"></path><path d="M811 61L791 0L733 86Z" fill="#00101c" stroke="#00101c"></path><path d="M0 169L82 182L0 139Z" fill="#205a7a" stroke="#205a7a"></path><path d="M129 132L82 182L191 228Z" fill="#19435d" stroke="#19435d"></path><path d="M900 501L900 386L777 481Z" fill="#00101c" stroke="#00101c"></path><path d="M738 600L770 600L777 481Z" fill="#15384f" stroke="#15384f"></path><path d="M900 269L900 160L761 206Z" fill="#081a28" stroke="#081a28"></path><path d="M0 377L67 422L96 316Z" fill="#205a7a" stroke="#205a7a"></path><path d="M96 316L67 422L174 366Z" fill="#112e42" stroke="#112e42"></path><path d="M137 600L168 600L237 510Z" fill="#1d4e6b" stroke="#1d4e6b"></path><path d="M67 422L69 462L174 366Z" fill="#19435d" stroke="#19435d"></path><path d="M770 600L900 501L777 481Z" fill="#205a7a" stroke="#205a7a"></path><path d="M900 160L900 60L811 61Z" fill="#0c2435" stroke="#0c2435"></path><path d="M69 462L137 600L237 510Z" fill="#19435d" stroke="#19435d"></path><path d="M204 0L103 0L177 106Z" fill="#277297" stroke="#277297"></path><path d="M0 169L0 267L82 182Z" fill="#112e42" stroke="#112e42"></path><path d="M82 182L0 267L96 316Z" fill="#19435d" stroke="#19435d"></path><path d="M67 422L0 377L69 462Z" fill="#297ea6" stroke="#297ea6"></path><path d="M900 60L900 0L811 61Z" fill="#0c2435" stroke="#0c2435"></path><path d="M0 267L0 377L96 316Z" fill="#1d4e6b" stroke="#1d4e6b"></path><path d="M69 462L0 520L137 600Z" fill="#277297" stroke="#277297"></path><path d="M0 139L82 182L129 132Z" fill="#15384f" stroke="#15384f"></path><path d="M103 0L0 139L129 132Z" fill="#00101c" stroke="#00101c"></path><path d="M770 600L900 600L900 501Z" fill="#081a28" stroke="#081a28"></path><path d="M0 377L0 520L69 462Z" fill="#277297" stroke="#277297"></path><path d="M103 0L0 0L0 139Z" fill="#15384f" stroke="#15384f"></path><path d="M0 520L0 600L137 600Z" fill="#1d4e6b" stroke="#1d4e6b"></path></g></svg>