<svg id="visual" viewBox="0 0 900 600" width="900" height="600" xmlns="http://www.w3.org/2000/svg" xmlns:xlink="http://www.w3.org/1999/xlink" version="1.1"><g stroke-width="1" stroke-linejoin="bevel"><path d="M472 218L508 129L406 167Z" fill="#fff4d2" stroke="#fff4d2"></path><path d="M508 129L398 79L406 167Z" fill="#297ea6" stroke="#297ea6"></path><path d="M472 218L572 173L508 129Z" fill="#cfdfba" stroke="#cfdfba"></path><path d="M572 173L573 104L508 129Z" fill="#51a7ab" stroke="#51a7ab"></path><path d="M510 0L415 0L398 79Z" fill="#2c8caa" stroke="#2c8caa"></path><path d="M510 0L398 79L508 129Z" fill="#9ccaae" stroke="#9ccaae"></path><path d="M573 104L510 0L508 129Z" fill="#3b9aab" stroke="#3b9aab"></path><path d="M317 0L304 70L398 79Z" fill="#9ccaae" stroke="#9ccaae"></path><path d="M398 79L304 70L406 167Z" fill="#69b3ab" stroke="#69b3ab"></path><path d="M365 326L536 331L472 218Z" fill="#e8eac5" stroke="#e8eac5"></path><path d="M472 218L536 331L572 173Z" fill="#3b9aab" stroke="#3b9aab"></path><path d="M365 326L472 218L406 167Z" fill="#fff4d2" stroke="#fff4d2"></path><path d="M281 237L365 326L406 167Z" fill="#3b9aab" stroke="#3b9aab"></path><path d="M304 70L281 237L406 167Z" fill="#9ccaae" stroke="#9ccaae"></path><path d="M415 0L317 0L398 79Z" fill="#cfdfba" stroke="#cfdfba"></path><path d="M572 173L671 92L573 104Z" fill="#fff4d2" stroke="#fff4d2"></path><path d="M573 104L618 0L510 0Z" fill="#fff4d2" stroke="#fff4d2"></path><path d="M702 180L671 92L572 173Z" fill="#82bfac" stroke="#82bfac"></path><path d="M536 331L630 309L572 173Z" fill="#fff4d2" stroke="#fff4d2"></path><path d="M671 92L618 0L573 104Z" fill="#3b9aab" stroke="#3b9aab"></path><path d="M630 309L702 180L572 173Z" fill="#cfdfba" stroke="#cfdfba"></path><path d="M292 370L396 403L365 326Z" fill="#cfdfba" stroke="#cfdfba"></path><path d="M365 326L396 403L536 331Z" fill="#82bfac" stroke="#82bfac"></path><path d="M582 439L667 327L630 309Z" fill="#69b3ab" stroke="#69b3ab"></path><path d="M281 237L260 325L365 326Z" fill="#69b3ab" stroke="#69b3ab"></path><path d="M211 298L260 325L281 237Z" fill="#cfdfba" stroke="#cfdfba"></path><path d="M582 439L630 309L536 331Z" fill="#b6d5b3" stroke="#b6d5b3"></path><path d="M630 309L667 327L702 180Z" fill="#b6d5b3" stroke="#b6d5b3"></path><path d="M396 403L519 424L536 331Z" fill="#3b9aab" stroke="#3b9aab"></path><path d="M260 325L292 370L365 326Z" fill="#2c8caa" stroke="#2c8caa"></path><path d="M177 203L281 237L304 70Z" fill="#69b3ab" stroke="#69b3ab"></path><path d="M177 203L211 298L281 237Z" fill="#cfdfba" stroke="#cfdfba"></path><path d="M260 325L230 360L292 370Z" fill="#297ea6" stroke="#297ea6"></path><path d="M161 70L177 203L304 70Z" fill="#51a7ab" stroke="#51a7ab"></path><path d="M591 466L582 439L519 424Z" fill="#9ccaae" stroke="#9ccaae"></path><path d="M519 424L582 439L536 331Z" fill="#e8eac5" stroke="#e8eac5"></path><path d="M292 468L388 479L396 403Z" fill="#69b3ab" stroke="#69b3ab"></path><path d="M211 298L230 360L260 325Z" fill="#69b3ab" stroke="#69b3ab"></path><path d="M63 401L230 360L211 298Z" fill="#51a7ab" stroke="#51a7ab"></path><path d="M317 0L203 0L304 70Z" fill="#fff4d2" stroke="#fff4d2"></path><path d="M789 133L722 0L671 92Z" fill="#69b3ab" stroke="#69b3ab"></path><path d="M671 92L722 0L618 0Z" fill="#51a7ab" stroke="#51a7ab"></path><path d="M203 0L161 70L304 70Z" fill="#51a7ab" stroke="#51a7ab"></path><path d="M292 468L396 403L292 370Z" fill="#51a7ab" stroke="#51a7ab"></path><path d="M396 403L460 515L519 424Z" fill="#b6d5b3" stroke="#b6d5b3"></path><path d="M798 213L789 133L702 180Z" fill="#b6d5b3" stroke="#b6d5b3"></path><path d="M702 180L789 133L671 92Z" fill="#69b3ab" stroke="#69b3ab"></path><path d="M460 515L591 466L519 424Z" fill="#297ea6" stroke="#297ea6"></path><path d="M582 439L709 396L667 327Z" fill="#9ccaae" stroke="#9ccaae"></path><path d="M667 327L798 213L702 180Z" fill="#cfdfba" stroke="#cfdfba"></path><path d="M824 316L798 213L667 327Z" fill="#fff4d2" stroke="#fff4d2"></path><path d="M591 466L709 396L582 439Z" fill="#82bfac" stroke="#82bfac"></path><path d="M230 360L292 468L292 370Z" fill="#fff4d2" stroke="#fff4d2"></path><path d="M388 479L460 515L396 403Z" fill="#b6d5b3" stroke="#b6d5b3"></path><path d="M418 600L460 515L388 479Z" fill="#3b9aab" stroke="#3b9aab"></path><path d="M203 0L132 0L161 70Z" fill="#e8eac5" stroke="#e8eac5"></path><path d="M161 70L90 74L177 203Z" fill="#69b3ab" stroke="#69b3ab"></path><path d="M789 133L795 0L722 0Z" fill="#297ea6" stroke="#297ea6"></path><path d="M900 66L795 0L789 133Z" fill="#69b3ab" stroke="#69b3ab"></path><path d="M132 0L90 74L161 70Z" fill="#69b3ab" stroke="#69b3ab"></path><path d="M177 203L75 282L211 298Z" fill="#297ea6" stroke="#297ea6"></path><path d="M709 396L824 316L667 327Z" fill="#82bfac" stroke="#82bfac"></path><path d="M798 213L900 221L789 133Z" fill="#51a7ab" stroke="#51a7ab"></path><path d="M90 74L73 229L177 203Z" fill="#cfdfba" stroke="#cfdfba"></path><path d="M230 360L160 464L292 468Z" fill="#51a7ab" stroke="#51a7ab"></path><path d="M73 229L75 282L177 203Z" fill="#9ccaae" stroke="#9ccaae"></path><path d="M728 514L798 414L709 396Z" fill="#e8eac5" stroke="#e8eac5"></path><path d="M709 396L798 414L824 316Z" fill="#69b3ab" stroke="#69b3ab"></path><path d="M728 514L709 396L591 466Z" fill="#51a7ab" stroke="#51a7ab"></path><path d="M63 401L160 464L230 360Z" fill="#9ccaae" stroke="#9ccaae"></path><path d="M269 600L418 600L388 479Z" fill="#3b9aab" stroke="#3b9aab"></path><path d="M269 600L388 479L292 468Z" fill="#3b9aab" stroke="#3b9aab"></path><path d="M460 515L524 600L591 466Z" fill="#e8eac5" stroke="#e8eac5"></path><path d="M712 600L728 514L591 466Z" fill="#cfdfba" stroke="#cfdfba"></path><path d="M900 295L900 221L824 316Z" fill="#cfdfba" stroke="#cfdfba"></path><path d="M824 316L900 221L798 213Z" fill="#2c8caa" stroke="#2c8caa"></path><path d="M418 600L524 600L460 515Z" fill="#3b9aab" stroke="#3b9aab"></path><path d="M900 221L900 66L789 133Z" fill="#e8eac5" stroke="#e8eac5"></path><path d="M524 600L567 600L591 466Z" fill="#cfdfba" stroke="#cfdfba"></path><path d="M900 397L824 316L798 414Z" fill="#51a7ab" stroke="#51a7ab"></path><path d="M900 397L900 295L824 316Z" fill="#3b9aab" stroke="#3b9aab"></path><path d="M0 79L0 162L90 74Z" fill="#fff4d2" stroke="#fff4d2"></path><path d="M90 74L0 162L73 229Z" fill="#e8eac5" stroke="#e8eac5"></path><path d="M73 229L0 324L75 282Z" fill="#9ccaae" stroke="#9ccaae"></path><path d="M75 282L63 401L211 298Z" fill="#3b9aab" stroke="#3b9aab"></path><path d="M0 324L63 401L75 282Z" fill="#b6d5b3" stroke="#b6d5b3"></path><path d="M900 66L900 0L795 0Z" fill="#82bfac" stroke="#82bfac"></path><path d="M63 401L113 473L160 464Z" fill="#e8eac5" stroke="#e8eac5"></path><path d="M233 600L269 600L292 468Z" fill="#69b3ab" stroke="#69b3ab"></path><path d="M0 0L0 79L90 74Z" fill="#b6d5b3" stroke="#b6d5b3"></path><path d="M233 600L292 468L160 464Z" fill="#69b3ab" stroke="#69b3ab"></path><path d="M0 162L0 324L73 229Z" fill="#297ea6" stroke="#297ea6"></path><path d="M63 401L0 509L113 473Z" fill="#2c8caa" stroke="#2c8caa"></path><path d="M132 0L0 0L90 74Z" fill="#82bfac" stroke="#82bfac"></path><path d="M113 473L233 600L160 464Z" fill="#51a7ab" stroke="#51a7ab"></path><path d="M900 486L900 397L798 414Z" fill="#b6d5b3" stroke="#b6d5b3"></path><path d="M567 600L712 600L591 466Z" fill="#69b3ab" stroke="#69b3ab"></path><path d="M728 514L824 527L798 414Z" fill="#fff4d2" stroke="#fff4d2"></path><path d="M0 324L0 377L63 401Z" fill="#e8eac5" stroke="#e8eac5"></path><path d="M113 473L62 600L233 600Z" fill="#b6d5b3" stroke="#b6d5b3"></path><path d="M800 600L824 527L728 514Z" fill="#69b3ab" stroke="#69b3ab"></path><path d="M900 600L900 486L824 527Z" fill="#b6d5b3" stroke="#b6d5b3"></path><path d="M824 527L900 486L798 414Z" fill="#297ea6" stroke="#297ea6"></path><path d="M712 600L800 600L728 514Z" fill="#2c8caa" stroke="#2c8caa"></path><path d="M0 377L0 509L63 401Z" fill="#cfdfba" stroke="#cfdfba"></path><path d="M0 509L62 600L113 473Z" fill="#2c8caa" stroke="#2c8caa"></path><path d="M800 600L900 600L824 527Z" fill="#fff4d2" stroke="#fff4d2"></path><path d="M0 509L0 600L62 600Z" fill="#b6d5b3" stroke="#b6d5b3"></path></g></svg>